<?xml version="1.0" encoding="iso-8859-1"?>
<!-- Generator: Adobe Illustrator 19.1.0, SVG Export Plug-In . SVG Version: 6.00 Build 0)  -->
<svg version="1.1" id="Capa_1" xmlns="http://www.w3.org/2000/svg" xmlns:xlink="http://www.w3.org/1999/xlink" x="0px" y="0px"
	 viewBox="0 0 490.305 490.305" style="enable-background:new 0 0 490.305 490.305;" xml:space="preserve">
<g>
	<g>
		<path d="M352.6,249.303l-99.1-58.8c-3.7-2.2-8.3-2.2-12-0.1l-100.4,56.3c-3.7,2.1-6.1,6-6.1,10.3l-1.4,115.2
			c-0.1,4.3,2.2,8.3,5.9,10.5l99.1,58.8c1.9,1.1,4,1.7,6.1,1.7c2,0,4-0.5,5.9-1.5l100.5-56.4c3.7-2.1,6.1-6,6.1-10.3l1.4-115.2
			C358.6,255.503,356.3,251.503,352.6,249.303z M232.9,410.303l-75.2-44.6l1.1-87.3l75.2,44.5L232.9,410.303z M246.2,302.203
			l-75.4-44.6l76.4-42.9l75.4,44.7L246.2,302.203z M333.2,367.803l-76.3,42.8l1.1-87.5l76.3-42.7L333.2,367.803z"/>
		<path d="M395.7,391.503c-5.7-3.4-13-1.6-16.5,4c-3.4,5.7-1.6,13,4,16.5c2,1.2,4.1,1.7,6.2,1.7c4.1,0,8-2.1,10.3-5.8
			C403.2,402.303,401.4,394.903,395.7,391.503z"/>
		<path d="M440.2,418.403c-5.7-3.4-13-1.6-16.5,4.1c-3.4,5.7-1.6,13,4,16.5c2,1.2,4.1,1.7,6.2,1.7c4.1,0,8-2.1,10.3-5.8
			C447.6,429.203,445.8,421.803,440.2,418.403z"/>
		<path d="M486.8,447.103c-2.2-2.2-5.3-3.5-8.5-3.5s-6.3,1.3-8.5,3.5s-3.5,5.3-3.5,8.5s1.3,6.3,3.5,8.5s5.3,3.5,8.5,3.5
			c3.1,0,6.3-1.3,8.5-3.5s3.5-5.3,3.5-8.5C490.4,452.403,489.1,449.303,486.8,447.103z"/>
		<path d="M96.1,387.203c-5.8,3.2-7.8,10.6-4.6,16.3c2.2,3.9,6.3,6.1,10.5,6.1c2,0,4-0.5,5.9-1.5c5.8-3.3,7.8-10.6,4.6-16.3
			C109.2,386.003,101.9,384.003,96.1,387.203z"/>
		<path d="M51.2,412.403c-5.8,3.2-7.8,10.6-4.6,16.3c2.2,3.9,6.3,6.1,10.5,6.1c2,0,4-0.5,5.9-1.5c5.8-3.3,7.8-10.6,4.6-16.3
			C64.2,411.203,56.9,409.203,51.2,412.403z"/>
		<path d="M12,436.103c-3.2,0-6.3,1.3-8.5,3.5s-3.5,5.3-3.5,8.5s1.3,6.3,3.5,8.5s5.3,3.5,8.5,3.5s6.3-1.3,8.5-3.5s3.5-5.3,3.5-8.5
			s-1.3-6.3-3.5-8.5C18.3,437.403,15.2,436.103,12,436.103z"/>
		<path d="M247.5,171.303c6.6,0,12-5.4,12-12s-5.4-12-12-12s-12,5.4-12,12C235.5,165.903,240.8,171.303,247.5,171.303z"/>
		<path d="M247.5,129.803L247.5,129.803c6.6,0,12-5.4,12-12s-5.4-12-12-12s-12,5.4-12,12C235.5,124.403,240.8,129.803,247.5,129.803
			z"/>
		<path d="M247.5,88.203c6.6,0,12-5.4,12-12s-5.4-12-12-12s-12,5.4-12,12C235.5,82.903,240.9,88.203,247.5,88.203z"/>
		<path d="M247.5,46.703c3.2,0,6.3-1.3,8.5-3.5c2.2-2.2,3.5-5.3,3.5-8.5s-1.3-6.3-3.5-8.5c-2.2-2.2-5.3-3.5-8.5-3.5
			s-6.3,1.3-8.5,3.5s-3.5,5.3-3.5,8.5s1.3,6.3,3.5,8.5C241.3,45.403,244.3,46.703,247.5,46.703z"/>
	</g>
</g>
<g>
</g>
<g>
</g>
<g>
</g>
<g>
</g>
<g>
</g>
<g>
</g>
<g>
</g>
<g>
</g>
<g>
</g>
<g>
</g>
<g>
</g>
<g>
</g>
<g>
</g>
<g>
</g>
<g>
</g>
</svg>
