<?xml version="1.0" encoding="iso-8859-1"?>
<!-- Generator: Adobe Illustrator 19.0.0, SVG Export Plug-In . SVG Version: 6.00 Build 0)  -->
<svg version="1.1" id="Layer_1" xmlns="http://www.w3.org/2000/svg" xmlns:xlink="http://www.w3.org/1999/xlink" x="0px" y="0px"
	 viewBox="0 0 508 508" style="enable-background:new 0 0 508 508;" xml:space="preserve" fill="#d7d7d8">
<g>
	<g>
		<path d="M465.75,176H42.35c-23.3,0-42.3,19-42.3,42.4v247.3c0,23.3,19,42.3,42.3,42.3h423.3c23.3,0,42.3-19,42.3-42.3V218.4
			C508.05,195,489.05,176,465.75,176z M465.75,479.8H42.35c-7.8,0-14.1-6.3-14.1-14.1V218.4c0-7.8,6.3-14.1,14.1-14.1h423.3
			c7.8,0,14.1,6.3,14.1,14.1v247.3h0.1C479.85,473.5,473.55,479.8,465.75,479.8z"/>
	</g>
</g>
<g>
	<g>
		<path d="M93.45,231.6h-22c-7.8,0-14.1,6.3-14.1,14.1s6.3,14.1,14.1,14.1h22c7.8,0,14.1-6.3,14.1-14.1S101.25,231.6,93.45,231.6z"
			/>
	</g>
</g>
<g>
	<g>
		<path d="M162.05,231.6h-22c-7.8,0-14.1,6.3-14.1,14.1c0,7.8,6.3,14.1,14.1,14.1h22c7.8,0,14.1-6.3,14.1-14.1
			C176.15,237.9,169.85,231.6,162.05,231.6z"/>
	</g>
</g>
<g>
	<g>
		<path d="M230.65,231.6h-22c-7.8,0-14.1,6.3-14.1,14.1c0,7.8,6.3,14.1,14.1,14.1h22c7.8,0,14.1-6.3,14.1-14.1
			C244.75,237.9,238.45,231.6,230.65,231.6z"/>
	</g>
</g>
<g>
	<g>
		<path d="M299.45,231.6h-22c-7.8,0-14.1,6.3-14.1,14.1s6.3,14.1,14.1,14.1h22c7.8,0,14.1-6.3,14.1-14.1S307.15,231.6,299.45,231.6z
			"/>
	</g>
</g>
<g>
	<g>
		<path d="M368.05,231.6h-22c-7.8,0-14.1,6.3-14.1,14.1s6.3,14.1,14.1,14.1h22c7.8,0,14.1-6.3,14.1-14.1S375.85,231.6,368.05,231.6z
			"/>
	</g>
</g>
<g>
	<g>
		<path d="M436.75,231.6h-22c-7.8,0-14.1,6.3-14.1,14.1s6.3,14.1,14.1,14.1h22c7.8,0,14.1-6.3,14.1-14.1S444.55,231.6,436.75,231.6z
			"/>
	</g>
</g>
<g>
	<g>
		<path d="M93.45,295.8h-22c-7.8,0-14.1,6.3-14.1,14.1s6.3,14.1,14.1,14.1h22c7.8,0,14.1-6.3,14.1-14.1
			C107.55,302.1,101.25,295.8,93.45,295.8z"/>
	</g>
</g>
<g>
	<g>
		<path d="M162.05,295.8h-22c-7.8,0-14.1,6.3-14.1,14.1c0,7.8,6.3,14.1,14.1,14.1h22c7.8,0,14.1-6.3,14.1-14.1
			C176.15,302.1,169.85,295.8,162.05,295.8z"/>
	</g>
</g>
<g>
	<g>
		<path d="M230.65,295.8h-22c-7.8,0-14.1,6.3-14.1,14.1c0,7.8,6.3,14.1,14.1,14.1h22c7.8,0,14.1-6.3,14.1-14.1
			C244.75,302.1,238.45,295.8,230.65,295.8z"/>
	</g>
</g>
<g>
	<g>
		<path d="M299.45,295.8h-22c-7.8,0-14.1,6.3-14.1,14.1s6.3,14.1,14.1,14.1h22c7.8,0,14.1-6.3,14.1-14.1
			C313.55,302.1,307.15,295.8,299.45,295.8z"/>
	</g>
</g>
<g>
	<g>
		<path d="M368.05,295.8h-22c-7.8,0-14.1,6.3-14.1,14.1s6.3,14.1,14.1,14.1h22c7.8,0,14.1-6.3,14.1-14.1
			C382.15,302.1,375.85,295.8,368.05,295.8z"/>
	</g>
</g>
<g>
	<g>
		<path d="M436.75,295.8h-22c-7.8,0-14.1,6.3-14.1,14.1s6.3,14.1,14.1,14.1h22c7.8,0,14.1-6.3,14.1-14.1
			C450.85,302.1,444.55,295.8,436.75,295.8z"/>
	</g>
</g>
<g>
	<g>
		<path d="M93.45,360h-22c-7.8,0-14.1,6.3-14.1,14.1s6.3,14.1,14.1,14.1h22c7.8,0,14.1-6.3,14.1-14.1
			C107.55,366.3,101.25,360,93.45,360z"/>
	</g>
</g>
<g>
	<g>
		<path d="M162.05,360h-22c-7.8,0-14.1,6.3-14.1,14.1s6.3,14.1,14.1,14.1h22c7.8,0,14.1-6.3,14.1-14.1
			C176.15,366.3,169.85,360,162.05,360z"/>
	</g>
</g>
<g>
	<g>
		<path d="M230.65,360h-22c-7.8,0-14.1,6.3-14.1,14.1s6.3,14.1,14.1,14.1h22c7.8,0,14.1-6.3,14.1-14.1
			C244.75,366.3,238.45,360,230.65,360z"/>
	</g>
</g>
<g>
	<g>
		<path d="M299.45,360h-22c-7.8,0-14.1,6.3-14.1,14.1s6.3,14.1,14.1,14.1h22c7.8,0,14.1-6.3,14.1-14.1
			C313.55,366.3,307.15,360,299.45,360z"/>
	</g>
</g>
<g>
	<g>
		<path d="M368.05,360h-22c-7.8,0-14.1,6.3-14.1,14.1s6.3,14.1,14.1,14.1h22c7.8,0,14.1-6.3,14.1-14.1
			C382.15,366.3,375.85,360,368.05,360z"/>
	</g>
</g>
<g>
	<g>
		<path d="M436.75,360h-22c-7.8,0-14.1,6.3-14.1,14.1s6.3,14.1,14.1,14.1h22c7.8,0,14.1-6.3,14.1-14.1
			C450.85,366.3,444.55,360,436.75,360z"/>
	</g>
</g>
<g>
	<g>
		<path d="M93.45,424.2h-22c-7.8,0-14.1,6.3-14.1,14.1s6.3,14.1,14.1,14.1h22c7.8,0,14.1-6.3,14.1-14.1
			C107.55,430.6,101.25,424.2,93.45,424.2z"/>
	</g>
</g>
<g>
	<g>
		<path d="M299.45,424.2h-159.4c-7.8,0-14.1,6.3-14.1,14.1s6.3,14.1,14.1,14.1h159.4c7.8,0,14.1-6.3,14.1-14.1
			C313.55,430.6,307.15,424.2,299.45,424.2z"/>
	</g>
</g>
<g>
	<g>
		<path d="M368.05,424.2h-22c-7.8,0-14.1,6.3-14.1,14.1s6.3,14.1,14.1,14.1h22c7.8,0,14.1-6.3,14.1-14.1
			C382.15,430.6,375.85,424.2,368.05,424.2z"/>
	</g>
</g>
<g>
	<g>
		<path d="M436.75,424.2h-22c-7.8,0-14.1,6.3-14.1,14.1s6.3,14.1,14.1,14.1h22c7.8,0,14.1-6.3,14.1-14.1
			C450.85,430.6,444.55,424.2,436.75,424.2z"/>
	</g>
</g>
<g>
	<g>
		<path d="M363.35,45.2c-29.2-29.1-68-45.2-109.3-45.2s-80.1,16.1-109.3,45.3c-5.5,5.5-5.5,14.4,0,20c5.5,5.4,14.4,5.4,20-0.1
			c23.9-23.9,55.6-37,89.3-37c33.8,0,65.5,13.1,89.3,37c2.8,2.8,12.9,7.1,20,0C368.85,59.7,368.85,50.8,363.35,45.2z"/>
	</g>
</g>
<g>
	<g>
		<path d="M317.45,91.3c-35-34.9-91.8-34.9-126.7,0c-5.5,5.5-5.5,14.4,0,20c7.4,7.4,17.2,2.8,20,0c23.9-23.9,62.8-23.9,86.7,0
			c5.5,5.5,14.4,5.5,20,0C322.95,105.8,322.95,96.9,317.45,91.3z"/>
	</g>
</g>
<g>
</g>
<g>
</g>
<g>
</g>
<g>
</g>
<g>
</g>
<g>
</g>
<g>
</g>
<g>
</g>
<g>
</g>
<g>
</g>
<g>
</g>
<g>
</g>
<g>
</g>
<g>
</g>
<g>
</g>
</svg>
