<?xml version='1.0' encoding='iso-8859-1'?>
<svg version="1.1" xmlns="http://www.w3.org/2000/svg" viewBox="0 0 72.601 72.601" xmlns:xlink="http://www.w3.org/1999/xlink" enable-background="new 0 0 72.601 72.601">
  <g fill="#010002">
    <path d="m28.051,23.396l5.084-10.301c0.517-1.049 0.086-2.318-0.961-2.835-1.049-0.519-2.317-0.087-2.835,0.961l-4.591,9.304-21.349,3.105c-0.797,0.115-1.46,0.674-1.709,1.44-0.249,0.766-0.041,1.607 0.536,2.169l15.448,15.058-1.438,8.385c-0.198,1.151 0.576,2.246 1.729,2.443 0.121,0.021 0.241,0.03 0.36,0.03 1.012,0 1.907-0.728 2.084-1.759l1.626-9.481c0.117-0.686-0.11-1.387-0.609-1.873l-13.175-12.841 18.207-2.648c0.689-0.099 1.285-0.532 1.593-1.157z"/>
    <path d="m47.347,56.833l-10.169-5.346c-0.617-0.323-1.353-0.323-1.97,0l-18.937,9.956c-6.487-5.136-10.96-12.747-11.943-21.534-0.13-1.161-1.177-2-2.338-1.867-1.162,0.13-1.998,1.178-1.868,2.339 2.056,18.368 17.563,32.22 36.072,32.22 1.169,0 2.117-0.947 2.117-2.116 0-1.169-0.948-2.116-2.117-2.116-5.784,0-11.232-1.537-15.944-4.234l15.944-8.382 9.184,4.827c1.036,0.544 2.314,0.146 2.858-0.889 0.543-1.035 0.145-2.315-0.889-2.858z"/>
    <path d="m70.377,34.183c-1.169,0-2.117,0.947-2.117,2.117 0,9.044-3.879,17.681-10.507,23.724l-3.04-17.726 6.988-6.812c0.836-0.816 0.854-2.156 0.038-2.993-0.816-0.838-2.156-0.854-2.993-0.038l-7.785,7.588c-0.499,0.486-0.726,1.188-0.608,1.873l3.834,22.359c0.177,1.031 1.072,1.76 2.084,1.76 0.011,0 0.023-0.003 0.034-0.003 0.012,0 0.024,0.004 0.037,0.004 0.434,0 0.871-0.133 1.247-0.408 9.333-6.819 14.904-17.783 14.904-29.327 0-1.171-0.948-2.118-2.116-2.118z"/>
    <path d="m36.193,0c-11.213,0-21.623,5.063-28.559,13.892-0.722,0.919-0.562,2.25 0.356,2.973 0.92,0.722 2.25,0.562 2.972-0.357 5.86-7.459 14.526-11.865 23.934-12.24l9.44,19.128c0.309,0.624 0.904,1.058 1.594,1.157l22.449,3.265c0.104,0.016 0.206,0.022 0.308,0.022 0.193,0 0.379-0.035 0.56-0.085 0.039-0.01 0.077-0.016 0.116-0.027 0.009-0.003 0.017-0.009 0.026-0.012 0.071-0.025 0.137-0.059 0.205-0.09 0.958-0.444 1.462-1.536 1.128-2.565-4.879-14.99-18.754-25.061-34.529-25.061zm3.501,4.427c11.304,1.225 21.079,8.322 25.736,18.686l-17.791-2.587-7.945-16.099z"/>
    <path d="m41.849,68.246c-0.388,0.395-0.614,0.938-0.614,1.495 0,0.558 0.226,1.101 0.614,1.496 0.395,0.395 0.945,0.621 1.503,0.621 0.558,0 1.101-0.227 1.496-0.621 0.396-0.396 0.621-0.938 0.621-1.496 0-0.557-0.226-1.101-0.621-1.495-0.791-0.783-2.21-0.79-2.999,0z"/>
  </g>
</svg>
